<svg width="558" height="612" viewBox="0 0 558 612" fill="none" xmlns="http://www.w3.org/2000/svg">
<rect width="558" height="612" rx="50" fill="#030303"/>
<mask id="mask0_128_10676" style="mask-type:luminance" maskUnits="userSpaceOnUse" x="368" y="52" width="130" height="131">
<path d="M498 52.9961L498 182.996L368 182.996L368 52.9961L498 52.9961Z" fill="white"/>
</mask>
<g mask="url(#mask0_128_10676)">
<path d="M458.945 143.904L458.945 93.483L407.593 93.483" stroke="#E9FF8D" stroke-width="7.06375" stroke-miterlimit="10" stroke-linecap="round"/>
<path d="M456.144 95.8204L401.91 150.054" stroke="#E9FF8D" stroke-width="7.06375" stroke-miterlimit="10" stroke-linecap="round"/>
<path d="M476.432 74.5598C500.418 98.5464 500.418 137.435 476.432 161.422C452.446 185.408 413.557 185.408 389.571 161.422C365.585 137.436 365.585 98.5464 389.571 74.5598C413.557 50.5738 452.446 50.5738 476.432 74.5598Z" stroke="#E9FF8D" stroke-width="7.06375" stroke-miterlimit="10"/>
</g>
<path d="M318.159 115.523C319.579 116.857 319.615 119.054 318.24 120.432L280.016 158.724L241.132 119.773C239.757 118.396 239.794 116.198 241.215 114.864C242.635 113.531 244.901 113.566 246.276 114.943L280.016 148.741L313.097 115.603C314.472 114.225 316.739 114.189 318.159 115.523Z" fill="#8DFCFD"/>
<path d="M283.268 150.094C283.267 152.011 281.664 153.565 279.688 153.565C277.711 153.565 276.108 152.011 276.107 150.094L276.107 73.2601C276.107 71.3428 277.71 69.7881 279.688 69.7881C281.665 69.7881 283.268 71.3428 283.268 73.2601L283.268 150.094Z" fill="#8DFCFD"/>
<path d="M278.999 176.053C310.835 176.053 336.84 150.167 336.84 117.996C336.84 85.8254 310.835 59.94 279 59.94C247.164 59.9403 221.16 85.8256 221.16 117.996C221.16 150.166 247.164 176.053 278.999 176.053ZM278.999 182.996C242.993 182.996 214 153.787 214 117.996C214 82.2049 242.993 52.9963 279 52.9961C315.006 52.9961 344 82.2048 344 117.996C344 153.787 315.006 182.996 278.999 182.996Z" fill="#8DFCFD"/>
<path d="M125 176.053C93.1644 176.053 67.1603 150.166 67.1603 117.996C67.1604 85.8255 93.1644 59.9403 125 59.94C156.836 59.94 182.841 85.8253 182.841 117.996C182.841 150.167 156.836 176.053 125 176.053ZM169.658 113.836L97.4446 113.836L127.551 83.6776C128.926 82.3 128.889 80.1021 127.469 78.7686C126.048 77.435 123.782 77.4708 122.407 78.8483L84.3425 116.979L123.065 155.768C124.44 157.146 126.706 157.182 128.127 155.848C129.547 154.514 129.584 152.317 128.209 150.939L98.0999 120.779L169.658 120.779C171.635 120.779 173.237 119.225 173.238 117.308C173.238 115.391 171.635 113.836 169.658 113.836ZM125 182.996C161.008 182.996 190 153.787 190 117.996C190 82.2047 161.008 52.9961 125 52.9961C88.9932 52.9963 60.0001 82.2049 60 117.996C60 153.787 88.9931 182.996 125 182.996Z" fill="#424BE8"/>
<path d="M433 364.053C464.836 364.053 490.84 338.166 490.84 305.996C490.84 273.826 464.836 247.94 433 247.94C401.164 247.94 375.159 273.825 375.159 305.996C375.159 338.167 401.164 364.053 433 364.053ZM388.342 301.836L460.555 301.836L430.449 271.678C429.074 270.3 429.111 268.102 430.531 266.769C431.952 265.435 434.218 265.471 435.593 266.848L473.658 304.979L434.935 343.768C433.56 345.146 431.294 345.182 429.873 343.848C428.453 342.514 428.416 340.317 429.791 338.939L459.9 308.779L388.342 308.779C386.365 308.779 384.763 307.225 384.762 305.308C384.762 303.391 386.365 301.836 388.342 301.836ZM433 370.996C396.992 370.996 368 341.787 368 305.996C368 270.205 396.992 240.996 433 240.996C469.007 240.996 498 270.205 498 305.996C498 341.787 469.007 370.996 433 370.996Z" fill="#424BE8"/>
<mask id="mask1_128_10676" style="mask-type:luminance" maskUnits="userSpaceOnUse" x="214" y="240" width="130" height="131">
<path d="M343.5 370.496L214.5 370.496L214.5 241.496L343.5 241.496L343.5 370.496Z" fill="white" stroke="white"/>
</mask>
<g mask="url(#mask1_128_10676)">
<path d="M304.945 280.088L304.945 330.509L253.593 330.509" stroke="#80FF92" stroke-width="7.06375" stroke-miterlimit="10" stroke-linecap="round"/>
<path d="M302.144 328.172L247.91 273.938" stroke="#80FF92" stroke-width="7.06375" stroke-miterlimit="10" stroke-linecap="round"/>
<path d="M322.432 349.432C346.418 325.446 346.418 286.557 322.432 262.571C298.446 238.585 259.557 238.585 235.571 262.571C211.585 286.557 211.585 325.446 235.571 349.432C259.557 373.418 298.446 373.418 322.432 349.432Z" stroke="#80FF92" stroke-width="7.06375" stroke-miterlimit="10"/>
</g>
<path d="M164.159 303.523C165.579 304.857 165.615 307.054 164.24 308.432L126.016 346.724L87.1325 307.773C85.7574 306.396 85.7944 304.198 87.2146 302.864C88.635 301.531 90.9013 301.566 92.2765 302.943L126.016 336.741L159.097 303.603C160.472 302.225 162.739 302.189 164.159 303.523Z" fill="#FBA3FA"/>
<path d="M129.268 338.094C129.267 340.011 127.664 341.565 125.688 341.565C123.711 341.565 122.108 340.011 122.107 338.094L122.107 261.26C122.107 259.343 123.71 257.788 125.688 257.788C127.665 257.788 129.268 259.343 129.268 261.26L129.268 338.094Z" fill="#FBA3FA"/>
<path d="M124.999 364.053C156.835 364.053 182.84 338.167 182.84 305.996C182.84 273.825 156.835 247.94 125 247.94C93.1643 247.94 67.1603 273.826 67.1603 305.996C67.1603 338.166 93.1643 364.053 124.999 364.053ZM124.999 370.996C88.9931 370.996 60 341.787 60 305.996C60.0001 270.205 88.9931 240.996 125 240.996C161.006 240.996 190 270.205 190 305.996C190 341.787 161.006 370.996 124.999 370.996Z" fill="#FBA3FA"/>
<path d="M433 552.053C464.836 552.053 490.84 526.166 490.84 493.996C490.84 461.826 464.836 435.94 433 435.94C401.164 435.94 375.159 461.825 375.159 493.996C375.159 526.167 401.164 552.053 433 552.053ZM388.342 489.836L460.555 489.836L430.449 459.678C429.074 458.3 429.111 456.102 430.531 454.769C431.952 453.435 434.218 453.471 435.593 454.848L473.658 492.979L434.935 531.768C433.56 533.146 431.294 533.182 429.873 531.848C428.453 530.514 428.416 528.317 429.791 526.939L459.9 496.779L388.342 496.779C386.365 496.779 384.763 495.225 384.762 493.308C384.762 491.391 386.365 489.836 388.342 489.836ZM433 558.996C396.992 558.996 368 529.787 368 493.996C368 458.205 396.992 428.996 433 428.996C469.007 428.996 498 458.205 498 493.996C498 529.787 469.007 558.996 433 558.996Z" fill="#FBA3FA"/>
<path d="M318.159 496.469C319.579 495.136 319.615 492.938 318.24 491.56L280.016 453.268L241.132 492.219C239.757 493.596 239.794 495.794 241.215 497.128C242.635 498.461 244.901 498.426 246.276 497.049L280.016 463.251L313.097 496.39C314.472 497.767 316.739 497.803 318.159 496.469Z" fill="#E9FF8D"/>
<path d="M283.268 461.898C283.267 459.981 281.664 458.427 279.688 458.427C277.711 458.427 276.108 459.981 276.107 461.898L276.107 538.732C276.107 540.649 277.71 542.204 279.688 542.204C281.665 542.204 283.268 540.649 283.268 538.732L283.268 461.898Z" fill="#E9FF8D"/>
<path d="M278.999 435.939C310.835 435.939 336.84 461.826 336.84 493.996C336.84 526.167 310.835 552.052 279 552.052C247.164 552.052 221.16 526.167 221.16 493.996C221.16 461.826 247.164 435.939 278.999 435.939ZM278.999 428.996C242.993 428.996 214 458.205 214 493.996C214 529.787 242.993 558.996 279 558.996C315.006 558.996 344 529.787 344 493.996C344 458.205 315.006 428.996 278.999 428.996Z" fill="#E9FF8D"/>
<mask id="mask2_128_10676" style="mask-type:luminance" maskUnits="userSpaceOnUse" x="60" y="428" width="130" height="131">
<path d="M60.5 558.496L189.5 558.496L189.5 429.496L60.5 429.496L60.5 558.496Z" fill="white" stroke="white"/>
</mask>
<g mask="url(#mask2_128_10676)">
<path d="M99.0549 468.088L99.0549 518.509L150.407 518.509" stroke="#80FF92" stroke-width="7.06375" stroke-miterlimit="10" stroke-linecap="round"/>
<path d="M101.856 516.172L156.09 461.938" stroke="#80FF92" stroke-width="7.06375" stroke-miterlimit="10" stroke-linecap="round"/>
<path d="M81.5677 537.432C57.5816 513.446 57.5816 474.557 81.5677 450.571C105.554 426.585 144.443 426.585 168.429 450.571C192.415 474.557 192.415 513.446 168.429 537.432C144.443 561.418 105.554 561.418 81.5677 537.432Z" stroke="#80FF92" stroke-width="7.06375" stroke-miterlimit="10"/>
</g>
</svg>
