<svg width="168" height="48" viewBox="0 0 168 48" fill="none" xmlns="http://www.w3.org/2000/svg">
<path d="M0 24C0 10.7452 10.7452 0 24 0H144C157.255 0 168 10.7452 168 24C168 37.2548 157.255 48 144 48H24C10.7452 48 0 37.2548 0 24Z" fill="#F2F2F2"/>
<g clip-path="url(#clip0_128_10615)">
<path d="M24 24C24 21.7909 25.7909 20 28 20H60C62.2091 20 64 21.7909 64 24C64 26.2091 62.2091 28 60 28H28C25.7909 28 24 26.2091 24 24Z" fill="#030303" fill-opacity="0.5"/>
<path d="M24 23.9951C24 21.786 25.7909 19.9951 28 19.9951H35C37.2091 19.9951 39 21.786 39 23.9951C39 26.2043 37.2091 27.9951 35 27.9951H28C25.7909 27.9951 24 26.2043 24 23.9951Z" fill="#030303"/>
</g>
<g opacity="0.5">
<path d="M76 24C76 21.7909 77.7909 20 80 20C82.2091 20 84 21.7909 84 24C84 26.2091 82.2091 28 80 28C77.7909 28 76 26.2091 76 24Z" fill="#030303"/>
</g>
<g opacity="0.5">
<path d="M96 24C96 21.7909 97.7909 20 100 20C102.209 20 104 21.7909 104 24C104 26.2091 102.209 28 100 28C97.7909 28 96 26.2091 96 24Z" fill="#030303"/>
</g>
<g opacity="0.5">
<path d="M116 24C116 21.7909 117.791 20 120 20C122.209 20 124 21.7909 124 24C124 26.2091 122.209 28 120 28C117.791 28 116 26.2091 116 24Z" fill="#030303"/>
</g>
<g opacity="0.5">
<path d="M136 24C136 21.7909 137.791 20 140 20C142.209 20 144 21.7909 144 24C144 26.2091 142.209 28 140 28C137.791 28 136 26.2091 136 24Z" fill="#030303"/>
</g>
<defs>
<clipPath id="clip0_128_10615">
<path d="M24 24C24 21.7909 25.7909 20 28 20H60C62.2091 20 64 21.7909 64 24C64 26.2091 62.2091 28 60 28H28C25.7909 28 24 26.2091 24 24Z" fill="white"/>
</clipPath>
</defs>
</svg>
