<svg width="24" height="24" viewBox="0 0 24 24" fill="none" xmlns="http://www.w3.org/2000/svg">
<path d="M23.25 11.6249C23.249 10.6314 22.9667 9.65858 22.4358 8.81891C21.9049 7.97923 21.1471 7.30706 20.25 6.88019V6.74988C20.2491 5.78352 19.9372 4.84311 19.3604 4.0678C18.7835 3.29248 17.9725 2.72345 17.0471 2.4449C16.1218 2.16635 15.1313 2.19308 14.2224 2.52114C13.3134 2.84919 12.5342 3.46114 12 4.26644C11.4658 3.46114 10.6866 2.84919 9.77764 2.52114C8.86866 2.19308 7.87823 2.16635 6.95289 2.4449C6.02755 2.72345 5.21646 3.29248 4.63962 4.0678C4.06279 4.84311 3.75087 5.78352 3.75 6.74988V6.88019C2.85219 7.3059 2.09362 7.97764 1.56245 8.81737C1.03127 9.65709 0.749298 10.6303 0.749298 11.6239C0.749298 12.6176 1.03127 13.5908 1.56245 14.4305C2.09362 15.2702 2.85219 15.942 3.75 16.3677V16.4999C3.75087 17.4662 4.06279 18.4066 4.63962 19.182C5.21646 19.9573 6.02755 20.5263 6.95289 20.8049C7.87823 21.0834 8.86866 21.0567 9.77764 20.7286C10.6866 20.4006 11.4658 19.7886 12 18.9833C12.5342 19.7886 13.3134 20.4006 14.2224 20.7286C15.1313 21.0567 16.1218 21.0834 17.0471 20.8049C17.9725 20.5263 18.7835 19.9573 19.3604 19.182C19.9372 18.4066 20.2491 17.4662 20.25 16.4999V16.3677C21.1469 15.9411 21.9047 15.2693 22.4356 14.4299C22.9665 13.5906 23.2489 12.618 23.25 11.6249ZM8.25 19.4999C7.51026 19.4998 6.79665 19.2264 6.24621 18.7322C5.69578 18.238 5.34734 17.5578 5.26781 16.8224C5.51035 16.857 5.75501 16.8745 6 16.8749H6.75C6.94891 16.8749 7.13968 16.7959 7.28033 16.6552C7.42098 16.5146 7.5 16.3238 7.5 16.1249C7.5 15.926 7.42098 15.7352 7.28033 15.5945C7.13968 15.4539 6.94891 15.3749 6.75 15.3749H6C5.11459 15.3759 4.25737 15.0636 3.58011 14.4933C2.90284 13.923 2.44923 13.1314 2.29957 12.2587C2.14992 11.386 2.31388 10.4886 2.76242 9.72517C3.21096 8.96178 3.91515 8.38172 4.75031 8.08769C4.89644 8.03595 5.02295 7.94021 5.11243 7.81362C5.20192 7.68704 5.24998 7.53583 5.25 7.38082V6.74988C5.25 5.95423 5.56607 5.19117 6.12868 4.62856C6.69129 4.06595 7.45435 3.74988 8.25 3.74988C9.04565 3.74988 9.80871 4.06595 10.3713 4.62856C10.9339 5.19117 11.25 5.95423 11.25 6.74988V13.1493C10.4264 12.4085 9.35769 11.9991 8.25 11.9999C8.05109 11.9999 7.86032 12.0789 7.71967 12.2195C7.57902 12.3602 7.5 12.551 7.5 12.7499C7.5 12.9488 7.57902 13.1396 7.71967 13.2802C7.86032 13.4209 8.05109 13.4999 8.25 13.4999C9.04565 13.4999 9.80871 13.8159 10.3713 14.3786C10.9339 14.9412 11.25 15.7042 11.25 16.4999C11.25 17.2955 10.9339 18.0586 10.3713 18.6212C9.80871 19.1838 9.04565 19.4999 8.25 19.4999ZM18 15.3749H17.25C17.0511 15.3749 16.8603 15.4539 16.7197 15.5945C16.579 15.7352 16.5 15.926 16.5 16.1249C16.5 16.3238 16.579 16.5146 16.7197 16.6552C16.8603 16.7959 17.0511 16.8749 17.25 16.8749H18C18.245 16.8745 18.4897 16.857 18.7322 16.8224C18.6699 17.3986 18.442 17.9445 18.076 18.394C17.7101 18.8435 17.2218 19.1773 16.6701 19.3552C16.1185 19.533 15.5271 19.5472 14.9676 19.3962C14.408 19.2451 13.9042 18.9351 13.517 18.5038C13.1298 18.0724 12.8759 17.5382 12.7859 16.9656C12.696 16.393 12.7738 15.8066 13.01 15.2773C13.2462 14.748 13.6307 14.2985 14.1169 13.9831C14.6032 13.6676 15.1704 13.4998 15.75 13.4999C15.9489 13.4999 16.1397 13.4209 16.2803 13.2802C16.421 13.1396 16.5 12.9488 16.5 12.7499C16.5 12.551 16.421 12.3602 16.2803 12.2195C16.1397 12.0789 15.9489 11.9999 15.75 11.9999C14.6423 11.9991 13.5736 12.4085 12.75 13.1493V6.74988C12.75 5.95423 13.0661 5.19117 13.6287 4.62856C14.1913 4.06595 14.9544 3.74988 15.75 3.74988C16.5457 3.74988 17.3087 4.06595 17.8713 4.62856C18.4339 5.19117 18.75 5.95423 18.75 6.74988V7.38082C18.75 7.53583 18.7981 7.68704 18.8876 7.81362C18.9771 7.94021 19.1036 8.03595 19.2497 8.08769C20.0849 8.38172 20.789 8.96178 21.2376 9.72517C21.6861 10.4886 21.8501 11.386 21.7004 12.2587C21.5508 13.1314 21.0972 13.923 20.4199 14.4933C19.7426 15.0636 18.8854 15.3759 18 15.3749ZM19.5 10.4999C19.5 10.6988 19.421 10.8896 19.2803 11.0302C19.1397 11.1709 18.9489 11.2499 18.75 11.2499H18.375C17.4799 11.2499 16.6215 10.8943 15.9885 10.2614C15.3556 9.62843 15 8.76998 15 7.87488V7.49988C15 7.30097 15.079 7.1102 15.2197 6.96955C15.3603 6.8289 15.5511 6.74988 15.75 6.74988C15.9489 6.74988 16.1397 6.8289 16.2803 6.96955C16.421 7.1102 16.5 7.30097 16.5 7.49988V7.87488C16.5 8.37216 16.6975 8.84907 17.0492 9.2007C17.4008 9.55233 17.8777 9.74988 18.375 9.74988H18.75C18.9489 9.74988 19.1397 9.8289 19.2803 9.96955C19.421 10.1102 19.5 10.301 19.5 10.4999ZM5.625 11.2499H5.25C5.05109 11.2499 4.86032 11.1709 4.71967 11.0302C4.57902 10.8896 4.5 10.6988 4.5 10.4999C4.5 10.301 4.57902 10.1102 4.71967 9.96955C4.86032 9.8289 5.05109 9.74988 5.25 9.74988H5.625C6.12228 9.74988 6.5992 9.55233 6.95083 9.2007C7.30246 8.84907 7.5 8.37216 7.5 7.87488V7.49988C7.5 7.30097 7.57902 7.1102 7.71967 6.96955C7.86032 6.8289 8.05109 6.74988 8.25 6.74988C8.44891 6.74988 8.63968 6.8289 8.78033 6.96955C8.92098 7.1102 9 7.30097 9 7.49988V7.87488C9 8.76998 8.64442 9.62843 8.01149 10.2614C7.37855 10.8943 6.52011 11.2499 5.625 11.2499Z" fill="#1DBEC0"/>
</svg>
