<svg width="24" height="24" viewBox="0 0 24 24" fill="none" xmlns="http://www.w3.org/2000/svg">
<path d="M18.0468 16.0753C18.9953 15.2786 19.7529 14.2794 20.264 13.1511C20.7751 12.0228 21.0266 10.7943 21 9.55594C20.9062 5.27063 17.474 1.73719 13.1962 1.51219C12.0925 1.45212 10.9879 1.61446 9.94812 1.98958C8.90834 2.3647 7.95455 2.94495 7.14338 3.69586C6.33221 4.44677 5.68022 5.35304 5.22612 6.36084C4.77203 7.36864 4.52508 8.45741 4.49996 9.56251L2.39528 13.6106C2.38684 13.6275 2.3784 13.6444 2.3709 13.6613C2.22001 14.013 2.20926 14.409 2.34084 14.7684C2.47242 15.1278 2.73639 15.4233 3.07871 15.5944L3.10215 15.6047L5.24996 16.5881V19.5C5.24996 19.8978 5.408 20.2794 5.6893 20.5607C5.97061 20.842 6.35214 21 6.74996 21H11.25C11.4489 21 11.6396 20.921 11.7803 20.7803C11.9209 20.6397 12 20.4489 12 20.25C12 20.0511 11.9209 19.8603 11.7803 19.7197C11.6396 19.579 11.4489 19.5 11.25 19.5H6.74996V16.1072C6.75007 15.9634 6.70886 15.8227 6.63124 15.7017C6.55362 15.5807 6.44286 15.4845 6.31215 15.4247L3.74996 14.25L5.91278 10.0931C5.96915 9.98749 5.99907 9.86975 5.99996 9.75001C5.99974 8.22032 6.51911 6.73593 7.47295 5.54005C8.42678 4.34418 9.75853 3.50775 11.25 3.16782V4.62938C10.7496 4.8063 10.3278 5.15443 10.0592 5.61224C9.79068 6.07005 9.69261 6.60806 9.78237 7.13118C9.87212 7.6543 10.1439 8.12885 10.5497 8.47096C10.9555 8.81307 11.4692 9.0007 12 9.0007C12.5307 9.0007 13.0444 8.81307 13.4502 8.47096C13.856 8.12885 14.1278 7.6543 14.2176 7.13118C14.3073 6.60806 14.2092 6.07005 13.9407 5.61224C13.6721 5.15443 13.2504 4.8063 12.75 4.62938V3.00001C12.8718 3.00001 12.9937 3.00001 13.1156 3.00938C14.4456 3.08557 15.7236 3.5522 16.7898 4.35093C17.856 5.14966 18.663 6.24502 19.11 7.50001H17.25C17.1399 7.49996 17.0313 7.52413 16.9316 7.57079C16.832 7.61745 16.7438 7.68547 16.6734 7.77001L14.2818 10.6406C13.7831 10.4548 13.2346 10.4513 12.7335 10.6308C12.2324 10.8103 11.811 11.1613 11.5437 11.6216C11.2764 12.0819 11.1805 12.6219 11.2729 13.1461C11.3654 13.6703 11.6402 14.1449 12.0489 14.486C12.4575 14.827 12.9736 15.0126 13.5059 15.0099C14.0381 15.0071 14.5523 14.8163 14.9574 14.471C15.3625 14.1257 15.6325 13.6483 15.7195 13.1232C15.8066 12.5981 15.7051 12.0591 15.4331 11.6016L17.6015 9.00001H19.4568C19.4793 9.19501 19.4931 9.39188 19.4981 9.59063C19.5215 10.6649 19.289 11.7292 18.8198 12.6959C18.3507 13.6625 17.6584 14.5037 16.8 15.15C16.6942 15.2293 16.6113 15.3351 16.5596 15.4568C16.5079 15.5785 16.4892 15.7116 16.5056 15.8428L17.2556 21.8428C17.2784 22.0239 17.3665 22.1905 17.5034 22.3113C17.6402 22.4322 17.8165 22.4989 17.999 22.4991C18.0304 22.4991 18.0617 22.4972 18.0928 22.4934C18.1905 22.4813 18.2849 22.45 18.3706 22.4013C18.4563 22.3526 18.5315 22.2876 18.592 22.2098C18.6525 22.1321 18.6971 22.0432 18.7232 21.9482C18.7494 21.8532 18.7565 21.754 18.7443 21.6563L18.0468 16.0753ZM12 7.50001C11.8516 7.50001 11.7066 7.45602 11.5833 7.37361C11.4599 7.2912 11.3638 7.17406 11.3071 7.03702C11.2503 6.89997 11.2354 6.74917 11.2644 6.60369C11.2933 6.4582 11.3647 6.32457 11.4696 6.21968C11.5745 6.11479 11.7082 6.04336 11.8536 6.01442C11.9991 5.98548 12.1499 6.00033 12.287 6.0571C12.424 6.11386 12.5412 6.20999 12.6236 6.33333C12.706 6.45667 12.75 6.60167 12.75 6.75001C12.75 6.94892 12.6709 7.13968 12.5303 7.28034C12.3896 7.42099 12.1989 7.50001 12 7.50001ZM13.5 13.5C13.3516 13.5 13.2066 13.456 13.0833 13.3736C12.9599 13.2912 12.8638 13.1741 12.8071 13.037C12.7503 12.9 12.7354 12.7492 12.7644 12.6037C12.7933 12.4582 12.8647 12.3246 12.9696 12.2197C13.0745 12.1148 13.2082 12.0434 13.3536 12.0144C13.4991 11.9855 13.6499 12.0003 13.787 12.0571C13.924 12.1139 14.0412 12.21 14.1236 12.3333C14.206 12.4567 14.25 12.6017 14.25 12.75C14.25 12.9489 14.1709 13.1397 14.0303 13.2803C13.8896 13.421 13.6989 13.5 13.5 13.5Z" fill="#030303"/>
</svg>
