<?xml version="1.0" encoding="UTF-8"?>
<svg id="Layer_1" data-name="Layer 1" xmlns="http://www.w3.org/2000/svg" viewBox="0 0 1920 600">
  <defs>
    <style>
      .cls-1 {
        fill: #f7f7f7;
      }
    </style>
  </defs>
  <path class="cls-1" d="M772.82,116.96h-2.27c-57.44,0-92.12,27.86-105.77,79.61v-70.51h-43.22v303.66h54.59v-181.4c0-48.9,32.41-81.32,80.18-81.32s74.5,30.71,74.5,77.91v184.81h54.59v-173.44c0-89.84-36.39-139.32-112.59-139.32Z"/>
  <path class="cls-1" d="M1383.66,359.26v69.95h43.22V124.98h-54.6v181.4c0,50.61-31.84,81.89-77.34,81.89s-71.65-28.43-71.65-76.2V124.98h-54.59v112.31c0-84.73-40.94-114.87-134.2-114.87-27.29,0-59.14,1.14-83.59,3.41v47.77c25.02-1.7,66.53-3.41,101.79-3.41,41.51,0,63.69,21.61,63.69,63.12v7.39h-76.77c-79.04,0-123.96,33.55-123.96,97.81s41.51,98.94,110.32,98.94c52.89,0,86.44-23.32,99.52-68.24v60.28h43.21v-128.23c0,88.71,39.8,137.05,112.02,137.05h2.28c54.02,0,87-27.29,100.65-79.05ZM1116.4,316.9c-2.28,59.14-40.94,77.34-79.04,77.34-43.79,0-68.24-22.18-68.24-55.73s24.45-56.87,68.24-56.87h79.04v35.26Z"/>
  <path class="cls-1" d="M1677.4,122.42h-59.03c-67.1,0-105.2,29.57-114.87,94.4v-90.99h-43.21v303.66h54.59v-164.34c.11-2.64.34-5.87.82-9.54,0,0,.74-5.63,2.07-11.16,7.2-29.97,24.9-47.16,24.9-47.16,16.15-15.76,34.92-20.62,51.37-24.89,9-2.34,15.7-3.19,23.69-4.2,7.46-.95,27.8-3.21,59.45-.99,43.94,3.09,56.98,11.13,64.08,17.37.53.46,1.22,1.06,2.15,1.99,10.47,10.59,15.88,26.23,15.88,46.73v7.39h-76.76c-79.05,0-123.97,33.55-123.97,97.81s41.51,98.94,110.32,98.94c52.88,0,86.44-23.32,99.51-68.24v60.28h43.22v-192.21c0-84.73-40.95-114.87-134.2-114.87ZM1759.28,316.9c-2.27,59.14-40.94,77.34-79.04,77.34-43.79,0-68.24-22.18-68.24-55.73s24.45-56.87,68.24-56.87h79.04v35.26Z"/>
  <path class="cls-1" d="M331.53,152.82c5.44,5.26,9.95,11.32,14.78,17.12,25.49,37.39,40.79,74.77,74.77,103.66,15.12,12.09,32.46.78,44.6-9.85,6.24-5.46,12.1-11.25,18.44-16.57,6.62-5.55,14.7-13.83,9.4-22.95-.3-.52-.64-1.17-1.07-1.6-11.9-11.9-23.79-22.09-33.99-35.69-11.9-18.69-22.09-37.39-33.99-56.08-6.73-10.57-14.26-21.05-23.11-29.96-11.54-11.62-27.27-24.89-43.17-12.52-10.42,8.11-20.95,16.12-30.59,25.17-7.74,7.27-21.32,18.6-9.97,29.33,4.16,3.94,9.69,5.9,13.88,9.95Z"/>
  <path class="cls-1" d="M480.55,315.2c-5.94-7.85-11.69-15.92-18.67-22.91-5.1-5.1-13.6-8.5-18.69-3.4-11.69,11.69-23.88,22.93-37.07,32.91-6.55,4.95-13.34,9.59-20.38,13.82-7.04,4.23-40.26,25.29-43.49,27.98-2.87,2.38-5.79,4.69-8.71,7.01-5.88,4.67-11.81,9.36-17.02,14.79-4.69,4.88-8.97,10.48-10.98,17.03-1.57,5.14-2.58,16.44,1.7,20.72,13.6,13.6,23.79,28.89,37.39,42.48,3.4,3.4,10.2,3.4,15.29,0,22.09-25.49,47.58-42.48,78.17-61.18,12.26-7.49,24.75-14.31,35.82-23.58,5.58-4.67,10.78-9.83,15.25-15.59,3.97-5.11,9.79-12.46,10.48-19.11.28-2.72-.56-5.44-1.66-7.94-3.83-8.71-11.71-15.48-17.43-23.02Z"/>
  <path class="cls-1" d="M290.24,419.74c-11.9-8.5-22.09-20.39-32.29-32.29-12.55-14.64-21.18-33.41-31.43-49.66-10.16-16.12-21.49-31.83-36.49-43.8-4.13-3.29-9.05-7.49-13.97-9.48-5.19-2.1-12.28,1.84-16.85,4.12-16.88,8.43-30.83,24.47-44.01,37.65-5.1,5.1-1.7,13.6,3.4,18.69,30.59,20.39,40.79,52.68,61.18,81.57,8.96,12.69,18.27,25.24,29.41,36.12,5.64,5.51,11.85,11.14,18.65,15.2,7.12,4.25,14.75,1.4,21.61-2.03,13.6-10.2,25.49-22.09,39.09-32.29,5.1-5.1,10.2-16.99,1.7-23.79Z"/>
  <path class="cls-1" d="M142.39,263.4c5.55,7.76,17.89,18.44,27.2,8.98,11.04-11.21,21.06-23.54,33.98-32.77,37.39-25.49,74.77-39.09,101.96-76.47,5.1-6.8,3.4-16.99-3.4-23.79-11.9-11.9-18.69-27.19-32.29-39.09-5.1-5.1-13.6-8.5-18.69-3.4-16.99,18.69-33.99,35.69-56.08,47.58-28.89,15.29-56.08,33.99-78.17,57.78-6.8,8.5-8.5,20.39-1.7,28.89,10.2,10.2,18.69,20.39,27.19,32.29Z"/>
  <rect class="cls-1" x="1213.47" y="472.45" width="6.75" height="50.66"/>
  <polygon class="cls-1" points="1267.73 511.96 1239.09 472.45 1232.12 472.45 1232.12 523.12 1238.87 523.12 1238.87 483.61 1267.51 523.12 1274.41 523.12 1274.41 472.45 1267.73 472.45 1267.73 511.96"/>
  <polygon class="cls-1" points="1321.99 511.96 1293.35 472.45 1286.38 472.45 1286.38 523.12 1293.13 523.12 1293.13 483.61 1321.77 523.12 1328.67 523.12 1328.67 472.45 1321.99 472.45 1321.99 511.96"/>
  <path class="cls-1" d="M1364.5,471.57c-15.05,0-26.51,11.31-26.51,26.21s11.46,26.21,26.51,26.21,26.51-11.31,26.51-26.21-11.38-26.21-26.51-26.21ZM1364.5,517.54c-11.16,0-19.6-8.52-19.6-19.75s8.44-19.75,19.6-19.75,19.6,8.52,19.6,19.75-8.44,19.75-19.6,19.75Z"/>
  <polygon class="cls-1" points="1434.26 472.45 1417.3 514.38 1400.26 472.45 1392.77 472.45 1413.63 523.12 1420.68 523.12 1441.6 472.45 1434.26 472.45"/>
  <path class="cls-1" d="M1458.71,472.45l-20.63,50.66h7.2l4.92-12.26h24.82l4.92,12.26h7.42l-20.63-50.66h-8ZM1452.69,504.61l9.91-24.82,9.91,24.82h-19.83Z"/>
  <polygon class="cls-1" points="1484.19 478.77 1499.46 478.77 1499.46 523.12 1506.22 523.12 1506.22 478.77 1521.49 478.77 1521.49 472.45 1484.19 472.45 1484.19 478.77"/>
  <rect class="cls-1" x="1529.57" y="472.45" width="6.75" height="50.66"/>
  <path class="cls-1" d="M1572.08,471.57c-15.05,0-26.51,11.31-26.51,26.21s11.46,26.21,26.51,26.21,26.51-11.31,26.51-26.21-11.38-26.21-26.51-26.21ZM1572.08,517.54c-11.16,0-19.6-8.52-19.6-19.75s8.44-19.75,19.6-19.75,19.6,8.52,19.6,19.75-8.44,19.75-19.6,19.75Z"/>
  <polygon class="cls-1" points="1643.45 511.96 1614.82 472.45 1607.84 472.45 1607.84 523.12 1614.6 523.12 1614.6 483.61 1643.23 523.12 1650.13 523.12 1650.13 472.45 1643.45 472.45 1643.45 511.96"/>
  <polygon class="cls-1" points="1686.99 472.45 1680.24 472.45 1680.24 523.12 1710.86 523.12 1710.86 516.8 1686.99 516.8 1686.99 472.45"/>
  <path class="cls-1" d="M1735.09,472.45l-20.63,50.66h7.2l4.92-12.26h24.82l4.92,12.26h7.42l-20.63-50.66h-8ZM1729.07,504.61l9.91-24.82,9.91,24.82h-19.83Z"/>
  <path class="cls-1" d="M1799.92,496.17c3.67-1.76,6.46-6.02,6.46-11.01,0-7.34-5.65-12.7-13-12.7h-22.91v50.66h25.04c8,0,13.95-5.8,13.95-13.66,0-6.46-3.89-11.82-9.55-13.29ZM1777.01,478.55h14.83c4.33,0,7.64,3.3,7.64,7.71s-3.52,7.71-7.64,7.71h-14.83v-15.42ZM1793.98,517.02h-16.96v-17.25h16.96c4.92,0,8.59,3.67,8.59,8.59s-3.67,8.66-8.59,8.66Z"/>
</svg>