<?xml version="1.0" encoding="UTF-8"?>
<svg id="Layer_1" data-name="Layer 1" xmlns="http://www.w3.org/2000/svg" viewBox="0 0 1080 1080">
  <path d="M588.31,302.83c10.01,9.67,18.31,20.83,27.2,31.5,46.91,68.8,75.05,137.6,137.6,190.76,27.82,22.25,59.74,1.43,82.08-18.13,11.48-10.06,22.27-20.71,33.94-30.5,12.18-10.21,27.05-25.45,17.3-42.24-.56-.96-1.18-2.16-1.98-2.95-21.89-21.89-43.78-40.65-62.54-65.67-21.89-34.4-40.65-68.8-62.54-103.2-12.38-19.45-26.25-38.74-42.53-55.13-21.24-21.37-50.18-45.8-79.44-23.05-19.18,14.92-38.55,29.66-56.29,46.32-14.24,13.38-39.22,34.22-18.34,53.97,7.65,7.24,17.83,10.87,25.54,18.31Z"/>
  <path d="M894.59,644.01c-7.05-16.03-21.56-28.49-32.07-42.37-10.94-14.45-21.51-29.3-34.36-42.15-9.38-9.38-25.02-15.64-34.4-6.25-21.51,21.51-43.94,42.2-68.22,60.57-12.05,9.12-24.54,17.65-37.5,25.43-12.96,7.78-74.09,46.54-80.03,51.48-5.27,4.39-10.66,8.63-16.03,12.9-10.82,8.6-21.73,17.23-31.33,27.22-8.63,8.98-16.5,19.28-20.2,31.33-2.9,9.45-4.75,30.25,3.13,38.13,25.02,25.02,43.78,53.16,68.8,78.18,6.25,6.25,18.76,6.25,28.14,0,40.65-46.91,87.56-78.18,143.85-112.58,22.56-13.78,45.55-26.34,65.92-43.4,10.27-8.6,19.84-18.1,28.06-28.69,7.3-9.41,18.01-22.93,19.29-35.17.52-5.01-1.03-10.01-3.05-14.62Z"/>
  <path d="M512.32,794.03c-21.89-15.64-40.65-37.53-59.42-59.42-23.09-26.93-38.98-61.48-57.83-91.39-18.69-29.66-39.55-58.57-67.15-80.61-7.59-6.06-16.66-13.78-25.71-17.44-9.54-3.86-22.6,3.39-31.01,7.58-31.07,15.5-56.74,45.04-80.99,69.28-9.38,9.38-3.13,25.02,6.25,34.4,56.29,37.53,75.05,96.94,112.58,150.11,16.48,23.35,33.63,46.44,54.13,66.47,10.38,10.14,21.81,20.5,34.33,27.97,13.1,7.82,27.13,2.57,39.76-3.74,25.02-18.76,46.91-40.65,71.93-59.42,9.38-9.38,18.76-31.27,3.13-43.78Z"/>
  <path d="M240.25,506.33c10.21,14.29,32.92,33.93,50.06,16.52,20.32-20.63,38.75-43.32,62.52-60.31,68.8-46.91,137.6-71.93,187.63-140.73,9.38-12.51,6.25-31.27-6.25-43.78-21.89-21.89-34.4-50.04-59.42-71.93-9.38-9.38-25.02-15.64-34.4-6.25-31.27,34.4-62.54,65.67-103.2,87.56-53.16,28.14-103.2,62.54-143.85,106.33-12.51,15.64-15.64,37.53-3.13,53.16,18.76,18.76,34.4,37.53,50.04,59.42Z"/>
</svg>